#!OML:ASF F:\VICON\USERDATA\INSTALL\rory3\rory3.ASF
:FULLY-SPECIFIED
:DEGREES
1029
root -4.34697 17.9771 1.8786 183.116 49.6995 178.588
lowerback 5.0515 -0.153571 1.86967
upperback 2.3328 0.0336734 2.89167
thorax -0.43611 0.0700688 1.91915
lowerneck -5.14474 -4.22062 -7.24132
upperneck 22.3342 -4.28092 1.40578
head 7.94869 -2.15882 1.3685
rclavicle 1.35174e-014 3.18055e-015
rhumerus -35.1564 -0.338863 -79.1531
rradius 33.5817
rwrist -9.047
rhand -12.6351 15.8736
rfingers 7.12502
rthumb 13.4449 -13.6725
lclavicle 1.35174e-014 3.18055e-015
lhumerus -37.4058 -10.5424 90.3736
lradius 51.5341
lwrist 20.0117
lhand -6.7095 27.8017
lfingers 7.12502
lthumb 19.1502 56.8789
rfemur -15.6931 1.99567 23.8198
rtibia 23.3633
rfoot -11.9518 -13.2968
rtoes -4.21239
lfemur -21.038 1.686 -20.0757
ltibia 66.9099
lfoot -2.06484 -3.34507
ltoes -20.7444
1030
root -4.27706 17.9797 1.8459 183.07 49.7825 178.529
lowerback 5.03812 -0.0837481 1.8577
upperback 2.31 0.123437 2.85503
thorax -0.453829 0.113866 1.88326
lowerneck -5.23911 -4.23987 -7.13543
upperneck 22.481 -4.28509 1.31154
head 8.01039 -2.15849 1.318
rclavicle -1.68967e-014 4.29375e-014
rhumerus -35.1388 -0.264411 -79.2009
rradius 33.8085
rwrist -9.16918
rhand -12.5124 15.824
rfingers 7.12502
rthumb 13.5632 -13.7143
lclavicle -1.68967e-014 4.29375e-014
lhumerus -37.2765 -10.7477 90.3791
lradius 52.4345
lwrist 20.1852
lhand -6.69933 27.6688
lfingers 7.12502
lthumb 19.16 56.745
rfemur -15.4125 2.14626 23.8523
rtibia 23.3699
rfoot -12.4127 -13.329
rtoes -3.01788
lfemur -21.9211 1.63602 -20.2428
ltibia 67.0781
lfoot -2.76209 -3.11127
ltoes -21.7419
1031
root -4.20857 17.9814 1.81181 183.001 49.8387 178.428
lowerback 4.99893 -0.0474946 1.83603
upperback 2.28449 0.167314 2.82768
thorax -0.45904 0.134675 1.86485
lowerneck -5.30527 -4.22117 -7.18634
upperneck 22.5699 -4.23518 1.2834
head 8.05128 -2.14024 1.32061
rclavicle 7.55382e-014 -7.95139e-015
rhumerus -35.0613 -0.0231908 -79.2533
rradius 33.9366
rwrist -9.31022
rhand -12.3745 15.7966
rfingers 7.12502
rthumb 13.6961 -13.7327
lclavicle 7.55382e-014 -7.95139e-015
lhumerus -37.1633 -10.8809 90.4115
lradius 53.2867
lwrist 20.3482
lhand -6.80717 27.6418
lfingers 7.12502
lthumb 19.0563 56.7282
rfemur -15.1522 2.18571 23.8582
rtibia 23.3928
rfoot -13.034 -13.2381
rtoes -0.921832
lfemur -22.7809 1.53853 -20.4673
ltibia 67.1374
lfoot -3.41454 -2.80271
ltoes -22.2931
1032
root -4.13975 17.9785 1.77493 182.884 49.8981 178.31
lowerback 4.97722 -0.00281821 1.86696
upperback 2.27273 0.224816 2.7732
thorax -0.459819 0.162795 1.78829
lowerneck -5.4319 -4.23119 -7.24473
upperneck 22.7249 -4.21229 1.23811
head 8.12687 -2.13666 1.31534
rclavicle -3.27995e-014 1.59028e-014
rhumerus -35.0127 0.179444 -79.3099
rradius 34.0517
rwrist -9.4419
rhand -12.4474 15.7364
rfingers 7.12502
rthumb 13.6258 -13.7976
lclavicle -3.27995e-014 1.59028e-014
lhumerus -37.0527 -11.1168 90.4744
lradius 54.123
lwrist 20.5583
lhand -6.87872 27.7085
lfingers 7.12502
lthumb 18.9875 56.8018
rfemur -14.8654 2.18168 23.8501
rtibia 23.461
rfoot -13.4298 -13.1868
rtoes -0.168298
lfemur -23.5161 1.4208 -20.7164
ltibia 67.0651
lfoot -4.08092 -2.50915
ltoes -22.4081
1033
root -4.07259 17.9728 1.73576 182.796 50.0076 178.254
lowerback 4.99341 0.038958 1.94807
upperback 2.25576 0.283075 2.72546
thorax -0.486715 0.191766 1.69043
lowerneck -5.50695 -4.20648 -7.20117
upperneck 22.8084 -4.14543 1.11315
head 8.16239 -2.11155 1.27146
rclavicle -4.37326e-014 3.49861e-014
rhumerus -35.0188 0.385503 -79.3712
rradius 34.2328
rwrist -9.58239
rhand -12.4338 15.6779
rfingers 7.12502
rthumb 13.6389 -13.8552
lclavicle -4.37326e-014 3.49861e-014
lhumerus -37.0207 -11.2584 90.5102
lradius 54.9825
lwrist 20.7128
lhand -6.78855 27.6526
lfingers 7.12502
lthumb 19.0742 56.7373
rfemur -14.5857 2.13612 23.8803
rtibia 23.5935
rfoot -13.4072 -13.2546
rtoes -2.63549
lfemur -24.1916 1.3204 -20.945
ltibia 66.8817
lfoot -4.84377 -2.1564
ltoes -23.1347
1034
root -4.00671 17.9657 1.69646 182.64 50.0853 178.092
lowerback 4.97845 0.0759295 1.94082
upperback 2.23831 0.328264 2.66309
thorax -0.496689 0.213185 1.62785
lowerneck -5.49312 -4.16297 -7.20785
upperneck 22.792 -4.08378 1.10696
head 8.1516 -2.08311 1.27646
rclavicle -1.19271e-015 -7.95139e-015
rhumerus -35.0407 0.579794 -79.437
rradius 34.4468
rwrist -9.70507
rhand -12.4157 15.6541
rfingers 7.12502
rthumb 13.6564 -13.8778
lclavicle -1.19271e-015 -7.95139e-015
lhumerus -37.0021 -11.3565 90.5274
lradius 55.82
lwrist 20.824
lhand -6.86612 27.4868
lfingers 7.12502
lthumb 18.9996 56.5788
rfemur -14.382 2.00842 23.8377
rtibia 23.7895
rfoot -13.5841 -13.2673
rtoes -4.07805
lfemur -24.844 1.15331 -21.258
ltibia 66.5886
lfoot -5.74229 -1.60641
ltoes -24.7983
1035
root -3.93892 17.9598 1.66057 182.529 50.101 177.878
lowerback 4.87618 0.118006 1.89382
upperback 2.1986 0.373056 2.57146
thorax -0.480812 0.233236 1.55773
lowerneck -5.49643 -4.13886 -7.28289
upperneck 22.7913 -4.06876 1.23805
head 8.1556 -2.07035 1.33398
rclavicle -5.06901e-014 -9.54166e-015
rhumerus -35.0705 0.75703 -79.5403
rradius 34.6483
rwrist -9.90954
rhand -12.5036 15.5592
rfingers 7.12502
rthumb 13.5716 -13.9784
lclavicle -5.06901e-014 -9.54166e-015
lhumerus -36.9667 -11.61 90.5454
lradius 56.6461
lwrist 20.8967
lhand -6.94106 27.5246
lfingers 7.12502
lthumb 18.9275 56.6237
rfemur -14.3061 2.01513 23.7449
rtibia 24.0672
rfoot -14.2016 -13.1621
rtoes -2.87736
lfemur -25.5991 0.962847 -21.5786
ltibia 66.2113
lfoot -6.4681 -1.07928
ltoes -25.7446
1036
root -3.87222 17.9538 1.63574 182.693 50.0009 177.801
lowerback 4.7233 0.124725 1.82201
upperback 2.07167 0.369939 2.53682
thorax -0.526093 0.228103 1.56263
lowerneck -5.56709 -4.11769 -7.2874
upperneck 22.8637 -4.03045 1.2418
head 8.19137 -2.0516 1.33851
rclavicle 4.39314e-014 -1.90833e-014
rhumerus -35.0614 0.766438 -79.5766
rradius 34.7391
rwrist -9.90847
rhand -12.4812 15.4916
rfingers 7.12502
rthumb 13.5933 -14.0446
lclavicle 4.39314e-014 -1.90833e-014
lhumerus -36.9724 -11.875 90.5766
lradius 57.3661
lwrist 20.9241
lhand -6.68601 27.2441
lfingers 7.12502
lthumb 19.1728 56.3191
rfemur -14.4526 2.1868 23.7678
rtibia 24.4207
rfoot -14.6161 -13.3096
rtoes -2.56684
lfemur -26.6584 0.749437 -21.7374
ltibia 65.7875
lfoot -6.96146 -0.609177
ltoes -26.4586
1037
root -3.80934 17.9432 1.61695 182.829 49.8877 177.67
lowerback 4.63965 0.11588 1.63696
upperback 1.9253 0.344881 2.52796
thorax -0.630348 0.211454 1.65845
lowerneck -5.61336 -4.09554 -7.27104
upperneck 22.8854 -3.97843 1.15512
head 8.203 -2.03331 1.31091
rclavicle -1.11319e-014 5.24792e-014
rhumerus -35.0034 0.707346 -79.5506
rradius 34.7125
rwrist -9.82545
rhand -12.3892 15.6297
rfingers 7.12502
rthumb 13.6819 -13.9005
lclavicle -1.11319e-014 5.24792e-014
lhumerus -37.0107 -12.0899 90.6266
lradius 58.0852
lwrist 21.0353
lhand -6.37359 26.8908
lfingers 7.12502
lthumb 19.4732 55.9357
rfemur -14.672 2.34259 23.7746
rtibia 24.8041
rfoot -15.1181 -13.5303
rtoes -1.7532
lfemur -27.7148 0.461964 -21.9038
ltibia 65.2811
lfoot -7.48985 -0.209709
ltoes -26.8261
1038
root -3.74479 17.9324 1.58768 182.716 49.8952 177.406
lowerback 4.61039 0.15942 1.45868
upperback 1.84426 0.389396 2.45125
thorax -0.698582 0.230371 1.67717
lowerneck -5.57702 -4.0672 -7.234
upperneck 22.8389 -3.93847 1.10984
head 8.17694 -2.01515 1.29391
rclavicle 1.13307e-014 3.57812e-014
rhumerus -34.9902 0.730472 -79.5681
rradius 34.73
rwrist -9.89849
rhand -12.3452 15.649
rfingers 7.12502
rthumb 13.7243 -13.8784
lclavicle 1.13307e-014 3.57812e-014
lhumerus -37.0116 -12.324 90.6458
lradius 58.7089
lwrist 21.0233
lhand -6.06034 26.7035
lfingers 7.12502
lthumb 19.7744 55.7176
rfemur -14.7014 2.40472 23.682
rtibia 25.1703
rfoot -15.5874 -13.6339
rtoes -1.41021
lfemur -28.4657 0.199815 -22.189
ltibia 64.6537
lfoot -7.99093 -0.149587
ltoes -26.3424
1039
root -3.67917 17.9218 1.55246 182.571 49.8908 177.208
lowerback 4.60634 0.162339 1.33548
upperback 1.79541 0.384606 2.39654
thorax -0.746775 0.225967 1.69015
lowerneck -5.56265 -3.99656 -7.19629
upperneck 22.8051 -3.8376 1.06062
head 8.15638 -1.9686 1.28071
rclavicle 1.90833e-014 -4.6118e-014
rhumerus -34.9608 0.820505 -79.6131
rradius 34.7085
rwrist -9.88375
rhand -12.4543 15.539
rfingers 7.12502
rthumb 13.6191 -13.9955
lclavicle 1.90833e-014 -4.6118e-014
lhumerus -37.0266 -12.3942 90.642
lradius 59.2382
lwrist 20.8126
lhand -5.87427 26.5026
lfingers 7.12502
lthumb 19.9532 55.4982
rfemur -14.5965 2.43065 23.6099
rtibia 25.4792
rfoot -15.932 -13.7433
rtoes -1.90115
lfemur -29.0682 -0.0492064 -22.4469
ltibia 63.9086
lfoot -8.54404 -0.0774281
ltoes -25.9952
1040
root -3.61537 17.9117 1.52146 182.409 49.8014 177.059
lowerback 4.71327 0.130816 1.2598
upperback 1.75416 0.340048 2.33588
thorax -0.847952 0.202401 1.67215
lowerneck -5.59356 -3.93042 -7.18865
upperneck 22.7966 -3.75438 1.09336
head 8.15544 -1.92615 1.29744
rclavicle 1.02573e-013 3.65764e-014
rhumerus -34.8411 0.693637 -79.6265
rradius 34.512
rwrist -9.61917
rhand -12.4345 15.8381
rfingers 7.12502
rthumb 13.6383 -13.6951
lclavicle 1.02573e-013 3.65764e-014
lhumerus -37.0874 -12.5486 90.6439
lradius 59.8012
lwrist 20.7159
lhand -5.89118 26.293
lfingers 7.12502
lthumb 19.937 55.2903
rfemur -14.3833 2.46576 23.5765
rtibia 25.6838
rfoot -16.22 -14.0026
rtoes -2.47234
lfemur -29.6236 -0.470287 -22.6833
ltibia 63.0569
lfoot -9.06617 0.390098
ltoes -27.1658
1041
root -3.54908 17.9039 1.4877 182.363 49.7661 177.066
lowerback 4.80456 0.150537 1.38036
upperback 1.72918 0.371222 2.229
thorax -0.923744 0.217297 1.49249
lowerneck -5.66105 -3.91049 -7.14678
upperneck 22.8431 -3.74917 1.19121
head 8.18313 -1.91169 1.32267
rclavicle 6.0033e-014 -7.55382e-014
rhumerus -34.7967 0.420013 -79.6785
rradius 34.4484
rwrist -9.45753
rhand -12.2979 16.1129
rfingers 7.12502
rthumb 13.7699 -13.4114
lclavicle 6.0033e-014 -7.55382e-014
lhumerus -37.1004 -12.9186 90.6171
lradius 60.3254
lwrist 20.8075
lhand -5.95092 26.2357
lfingers 7.12502
lthumb 19.8795 55.2389
rfemur -14.1125 2.67162 23.6665
rtibia 25.8316
rfoot -16.4647 -14.3828
rtoes -3.11835
lfemur -30.1135 -1.04554 -22.786
ltibia 62.121
lfoot -9.54684 0.959166
ltoes -27.3369
